# AST/ASF file generated using VICON BodyLanguage
# -----------------------------------------------
:version 1.10
:name VICON
:units
  mass 1.0
  length 0.45
  angle deg
:documentation
   .ast/.asf automatically generated from VICON data using
   VICON BodyBuilder and BodyLanguage model FoxedUp or BRILLIANT.MOD
:root
   order TX TY TZ RX RY RZ
   axis XYZ
   position 0 0 0  
   orientation 0 0 0 
:bonedata
  begin
     id 1 
     name lhipjoint
     direction 0.62366 -0.717238 0.310833 
     length 2.53602 
     axis 0 0 0  XYZ
  end
  begin
     id 2 
     name lfemur
     direction 0.34202 -0.939693 0  
     length 7.40817  
     axis 0 0 20  XYZ
    dof rx ry rz
    limits (-160.0 20.0)
           (-70.0 70.0)
           (-60.0 70.0)
  end
  begin
     id 3 
     name ltibia
     direction 0.34202 -0.939693 0   
     length 7.7045   
     axis 0 0 20   XYZ
    dof rx
    limits (-10.0 170.0)
  end
  begin
     id 4 
     name lfoot
     direction 0.0673888 -0.185149 0.980397   
     length 2.09456   
     axis -90 7.62852e-016 20   XYZ
    dof rx rz
    limits (-45.0 90.0)
           (-70.0 20.0)
  end
  begin
     id 5 
     name ltoes
     direction 1.53575e-011 -4.21994e-011 1   
     length 1.05543   
     axis -90 7.62852e-016 20   XYZ
    dof rx
    limits (-90.0 20.0)
  end
  begin
     id 6 
     name rhipjoint
     direction -0.489018 -0.800347 0.346851   
     length 2.27268  
     axis 0 0 0  XYZ 
  end
  begin
     id 7 
     name rfemur
     direction -0.34202 -0.939693 0   
     length 7.55487   
     axis 0 0 -20   XYZ
    dof rx ry rz
    limits (-160.0 20.0)
           (-70.0 70.0)
           (-70.0 60.0)
  end
  begin
     id 8 
     name rtibia
     direction -0.34202 -0.939693 0   
     length 7.78969   
     axis 0 0 -20   XYZ
    dof rx
    limits (-10.0 170.0)
 end
 begin
     id 9 
     name rfoot
     direction -0.0859318 -0.236096 0.967923   
     length 2.19143  
     axis -90 -7.62852e-016 -20   XYZ
    dof rx rz
    limits (-45.0 90.0)
           (-20.0 70.0)
  end
  begin
     id 10 
     name rtoes
     direction -1.53538e-011 -4.21989e-011 1   
     length 1.09845   
     axis -90 -7.62852e-016 -20   XYZ
    dof rx
    limits (-90.0 20.0)
  end
  begin
     id 11 
     name lowerback
     direction -0.00762546 0.998978 -0.0445553   
     length 1.98161   
     axis 0 0 0   XYZ
    dof rx ry rz
    limits (-20.0 45.0)
           (-30.0 30.0)
           (-30.0 30.0)
  end
  begin
     id 12 
     name upperback
     direction 0.0422361 0.998867 -0.0219156   
     length 1.97558   
     axis 0 0 0   XYZ
    dof rx ry rz
    limits (-20.0 45.0)
           (-30.0 30.0)
           (-30.0 30.0)
  end
  begin
     id 13 
     name thorax
     direction 0.0442465 0.999021 7.47603e-005   
     length 1.97799   
     axis 0 0 0   XYZ
    dof rx ry rz
    limits (-20.0 45.0)
           (-30.0 30.0)
           (-30.0 30.0)
  end
  begin
     id 14 
     name lowerneck
     direction 0.00312169 0.984641 0.174564   
     length 1.78995   
     axis 0 0 0   XYZ
    dof rx ry rz
    limits (-20.0 45.0)
           (-30.0 30.0)
           (-30.0 30.0)
  end
  begin
     id 15 
     name upperneck
     direction -0.0383028 0.985255 -0.166749   
     length 1.83053   
     axis 0 0 0   XYZ
    dof rx ry rz
    limits (-20.0 45.0)
           (-30.0 30.0)
           (-30.0 30.0)
  end
  begin
     id 16
     name head
     direction -0.0129546 0.997059 -0.0755386  
     length 1.84088  
     axis 0 0 0   XYZ
    dof rx ry rz
    limits (-20.0 45.0)
           (-30.0 30.0)
           (-30.0 30.0)
  end
  begin
     id 17 
     name lclavicle
     direction 0.912857 0.370519 -0.171488  
     length 3.51279  
     axis 0 0 0   XYZ
    dof ry rz
    limits (-20.0 10.0)
           (0.0 20.0)
  end
  begin
     id 18 
     name lhumerus
     direction 1 -4.48962e-011 3.64361e-027   
     length 4.95663   
     axis 180 -30 -90   XYZ
    dof rx ry rz
    limits (-60.0 90.0)
           (-90.0 90.0)
           (-90.0 90.0)
  end
  begin
     id 19
     name lradius
     direction 1 -4.48974e-011 5.97202e-027   
     length 3.38177   
     axis 180 -30 -90   XYZ
    dof rx
    limits (-10.0 170.0)
  end
  begin
     id 20
     name lwrist
     direction 1 -4.4896e-011 9.83288e-027   
     length 1.69088   
     axis -9.31221e-015 90 90   XYZ
    dof ry
    limits (-180.0 0.0)
 end
  begin
     id 21 
     name lhand
     direction 1 -4.4902e-011 1.96551e-026   
     length 0.662909   
     axis -1.25475e-014 90 90   XYZ
    dof rx rz
    limits (-90.0 90.0)
           (-45.0 45.0)
  end
  begin
     id 22 
     name lfingers
     direction 1 -4.48971e-011 3.93277e-026   
     length 0.534454   
     axis -2.50945e-014 90 90   XYZ
    dof rx
    limits (0.0 90.0)
  end
  begin
     id 23
     name lthumb
     direction 0.707107 -6.34933e-011 0.707107   
     length 0.767373   
     axis -90 45 -4.80359e-014   XYZ
    dof rx rz
    limits (-45.0 45.0)
           (-45.0 45.0)
  end
  begin
     id 24 
     name rclavicle
     direction -0.900919 0.395364 -0.178976   
     length 3.40627  
     axis 0 0 0   XYZ 
    dof ry rz
    limits (-10.0 20.0)
           (-20.0 0.0)
  end
  begin
     id 25 
     name rhumerus
     direction -1 -4.48969e-011 1.03875e-027  
     length 5.08365   
     axis 180 30 90   XYZ
    dof rx ry rz
    limits (-90.0 60.0)
           (-90.0 90.0)
           (-90.0 90.0)
  end
  begin
     id 26 
     name rradius
     direction -1 -4.48951e-011 5.02733e-027   
     length 3.35984   
     axis 180 30 90   XYZ
    dof rx
    limits (-10.0 170.0)
  end
  begin
     id 27 
     name rwrist
     direction -1 -4.49011e-011 9.82828e-027   
     length 1.67992   
     axis -9.31221e-015 -90 -90   XYZ
    dof ry
    limits (-180.0 0.0)
  end
  begin
     id 28
     name rhand
     direction -1 -4.48894e-011 1.96774e-026   
     length 0.820764   
     axis -1.25475e-014 -90 -90   XYZ
    dof rx rz
    limits (-90.0 90.0)
           (-45.0 45.0)
  end
  begin
     id 29
     name rfingers
     direction -1 -4.49095e-011 3.92833e-026   
     length 0.661721   
     axis -2.50945e-014 -90 -90   XYZ
    dof rx
    limits (0.0 90.0)
  end
  begin
     id 30
     name rthumb
     direction -0.707107 -6.34881e-011 0.707107   
     length 0.950103   
     axis -90 -45 4.80359e-014   XYZ
    dof rx rz
    limits (-45.0 45.0)
           (-45.0 45.0)
  end
:hierarchy
  begin
    root lhipjoint rhipjoint lowerback
    lhipjoint lfemur
    lfemur ltibia
    ltibia lfoot
    lfoot ltoes
    rhipjoint rfemur
    rfemur rtibia
    rtibia rfoot
    rfoot rtoes
    lowerback upperback
    upperback thorax
    thorax lowerneck lclavicle rclavicle
    lowerneck upperneck
    upperneck head
    lclavicle lhumerus
    lhumerus lradius
    lradius lwrist
    lwrist lhand lthumb
    lhand lfingers
    rclavicle rhumerus
    rhumerus rradius
    rradius rwrist
    rwrist rhand rthumb
    rhand rfingers
  end

#!OML:ASF I:\golf\golf\golf 2\Subject 1\2002-09-07\Subject1.ASF
:FULLY-SPECIFIED
:DEGREES
123
root -8.08304 17.7608 0.685753 -20.1469 81.4522 -34.7917
lowerback 4.38818 1.45961 -5.03967
upperback 5.44456 1.92377 3.15565
thorax 2.92109 0.785066 6.08597
lowerneck -14.5254 2.03815 1.50862
upperneck 35.7491 6.6996 -7.05006
head 15.272 2.49967 -1.97593
rclavicle 1.14488e-014 1.78161e-014
rhumerus -12.0787 1.51854 -99.6148
rradius 48.9972
rwrist -65.6791
rhand -35.5337 -6.02896
rfingers 7.12502
rthumb -8.6598 -35.8313
lclavicle 1.14488e-014 1.78161e-014
lhumerus 24.1701 -73.3539 76.9046
lradius 23.5091
lwrist 19.5989
lhand 180.997 241.026
lfingers 7.12502
lthumb -153.455 269.186
rfemur -31.6736 2.06745 14.6392
rtibia 31.2934
rfoot -9.79417 -1.59129
rtoes 27.4562
lfemur -24.8637 10.2918 -5.17939
ltibia 27.2119
lfoot -10.0117 3.07146
ltoes -23.3459
124
root -8.08507 17.7601 0.713626 -20.1905 81.1869 -34.9236
lowerback 4.29553 1.25511 -5.02602
upperback 5.47583 1.65608 3.05025
thorax 3.04669 0.647732 5.97719
lowerneck -14.3393 2.33666 1.68239
upperneck 35.4669 7.08113 -7.17033
head 15.1308 2.66881 -1.98955
rclavicle -3.00165e-014 -2.23633e-015
rhumerus -12.2557 1.37511 -99.405
rradius 50.0949
rwrist -66.2289
rhand -36.0626 -5.91242
rfingers 7.12502
rthumb -9.1702 -35.693
lclavicle -3.00165e-014 -2.23633e-015
lhumerus 26.7474 -73.7131 74.4599
lradius 23.5665
lwrist 18.8979
lhand 180.868 239.538
lfingers 7.12502
lthumb -153.579 267.716
rfemur -31.8444 2.07418 14.9429
rtibia 31.3347
rfoot -9.83811 -1.28835
rtoes 28.5041
lfemur -24.7745 10.2082 -4.86475
ltibia 27.1163
lfoot -9.93686 3.43124
ltoes -23.8041
125
root -8.08617 17.7608 0.744345 -19.9613 80.8509 -34.7158
lowerback 4.33407 1.11014 -4.84004
upperback 5.49005 1.46745 2.78541
thorax 3.07359 0.5629 5.59514
lowerneck -14.2569 2.63149 1.88861
upperneck 35.2979 7.41226 -7.15141
head 15.0598 2.83503 -1.96057
rclavicle 1.44119e-014 1.43125e-014
rhumerus -12.432 0.925139 -99.3919
rradius 51.2662
rwrist -66.7129
rhand -36.7738 -5.46955
rfingers 7.12502
rthumb -9.85644 -35.2188
lclavicle 1.44119e-014 1.43125e-014
lhumerus 30.1655 -74.4295 70.9469
lradius 23.7659
lwrist 18.392
lhand 180.422 238.342
lfingers 7.12502
lthumb -154.005 266.584
rfemur -31.9574 2.18238 15.2324
rtibia 31.389
rfoot -9.79322 -1.10349
rtoes 28.5519
lfemur -24.5742 10.2151 -4.56064
ltibia 27.0064
lfoot -9.88394 3.75977
ltoes -24.3027
126
root -8.08618 17.7599 0.780922 -19.3154 80.3847 -34.1173
lowerback 4.3139 1.01163 -4.90835
upperback 5.49516 1.33629 2.62871
thorax 3.10958 0.495557 5.47249
lowerneck -14.2139 2.91536 2.04649
upperneck 35.144 7.79928 -7.26739
head 15.0176 3.00097 -1.96957
rclavicle -8.15017e-015 2.42517e-014
rhumerus -12.6585 0.606287 -99.2791
rradius 52.4516
rwrist -66.9757
rhand -37.9759 -4.87257
rfingers 7.12502
rthumb -11.016 -34.5635
lclavicle -8.15017e-015 2.42517e-014
lhumerus 33.3991 -74.878 67.8396
lradius 23.8783
lwrist 17.3578
lhand 180.033 236.799
lfingers 7.12502
lthumb -154.378 265.095
rfemur -32.121 2.37538 15.5329
rtibia 31.4514
rfoot -9.57367 -0.874528
rtoes 27.2343
lfemur -24.3617 10.4483 -4.28626
ltibia 26.8708
lfoot -9.7587 4.11159
ltoes -25.4761
127
root -8.08649 17.7593 0.820172 -18.3306 79.8639 -33.1856
lowerback 4.22528 0.909194 -5.37609
upperback 5.53196 1.19406 2.68049
thorax 3.21303 0.401544 5.79967
lowerneck -14.0895 3.21894 2.08759
upperneck 34.8751 8.28927 -7.53096
head 14.9167 3.18114 -2.00071
rclavicle 7.55382e-015 -5.96354e-015
rhumerus -12.8694 0.671868 -98.837
rradius 53.6533
rwrist -67.2286
rhand -39.1406 -4.59014
rfingers 7.12502
rthumb -12.1393 -34.218
lclavicle 7.55382e-015 -5.96354e-015
lhumerus 35.508 -74.7227 66.3029
lradius 23.7309
lwrist 15.9977
lhand 179.896 235.042
lfingers 7.12502
lthumb -154.509 263.357
rfemur -32.3025 2.49113 15.8326
rtibia 31.5053
rfoot -9.58161 -0.315668
rtoes 30.6664
lfemur -24.1517 10.7359 -4.06549
ltibia 26.724
lfoot -9.56358 4.54163
ltoes -26.6088
128
root -8.08673 17.7605 0.855187 -17.9852 79.4514 -32.8563
lowerback 4.2007 0.664049 -5.67106
upperback 5.58515 0.863798 2.74084
thorax 3.32932 0.218634 6.04005
lowerneck -13.9484 3.58323 1.95327
upperneck 34.5918 8.88561 -7.71192
head 14.8023 3.39514 -1.94849
rclavicle -9.14409e-015 6.36111e-015
rhumerus -13.0667 0.989245 -98.3892
rradius 54.8778
rwrist -67.5112
rhand -40.0053 -4.37414
rfingers 7.12502
rthumb -12.9729 -33.9508
lclavicle -9.14409e-015 6.36111e-015
lhumerus 36.972 -74.2761 65.4025
lradius 23.4921
lwrist 14.8127
lhand 179.863 233.625
lfingers 7.12502
lthumb -154.54 261.944
rfemur -32.4083 2.48354 16.1893
rtibia 31.5406
rfoot -9.57588 -0.180257
rtoes 21.8685
lfemur -23.9169 10.8193 -3.76886
ltibia 26.5771
lfoot -9.43645 4.92163
ltoes -27.0683
129
root -8.08551 17.761 0.892313 -17.9829 79.001 -32.8955
lowerback 4.0945 0.310154 -5.91704
upperback 5.67062 0.394044 2.84648
thorax 3.55161 -0.0384394 6.30299
lowerneck -13.8566 4.01657 1.67549
upperneck 34.2825 9.62548 -7.91312
head 14.6942 3.64831 -1.85421
rclavicle 1.27222e-014 -1.90833e-014
rhumerus -13.2089 1.61509 -97.9968
rradius 56.1011
rwrist -67.7896
rhand -40.8929 -3.8094
rfingers 7.12502
rthumb -13.8284 -33.3297
lclavicle 1.27222e-014 -1.90833e-014
lhumerus 38.1792 -73.56 64.6591
lradius 23.2985
lwrist 13.6628
lhand 180.101 232.272
lfingers 7.12502
lthumb -154.313 260.559
rfemur -32.5042 2.65575 16.5858
rtibia 31.5459
rfoot -9.73618 -0.102444
rtoes 12.8517
lfemur -23.6551 10.9158 -3.36186
ltibia 26.4365
lfoot -9.39887 5.24385
ltoes -27.0761
130
root -8.08306 17.7595 0.935873 -17.7438 78.4155 -32.6983
lowerback 3.87291 0.124572 -6.13485
upperback 5.79781 0.158246 2.87015
thorax 3.85099 -0.180254 6.45858
lowerneck -13.8364 4.35486 1.52508
upperneck 34.018 10.1616 -8.03987
head 14.609 3.83956 -1.78597
rclavicle 3.08116e-014 2.10712e-014
rhumerus -13.2419 1.90355 -97.5542
rradius 57.3494
rwrist -68.0092
rhand -42.2282 -3.07063
rfingers 7.12502
rthumb -15.115 -32.4987
lclavicle 3.08116e-014 2.10712e-014
lhumerus 40.5463 -73.2199 62.7357
lradius 23.2334
lwrist 12.5916
lhand 180.309 231.157
lfingers 7.12502
lthumb -154.113 259.415
rfemur -32.5843 2.99793 16.983
rtibia 31.5186
rfoot -10.0653 0.119104
rtoes 3.90239
lfemur -23.3209 11.1124 -2.90775
ltibia 26.3009
lfoot -9.36975 5.60215
ltoes -26.7013
131
root -8.08045 17.7584 0.978894 -17.578 77.8861 -32.5101
lowerback 3.73935 0.0721629 -6.13448
upperback 5.91044 0.101461 2.76417
thorax 4.05391 -0.216473 6.34765
lowerneck -13.7849 4.57092 1.45003
upperneck 33.8266 10.4506 -8.01364
head 14.5231 3.95702 -1.71259
rclavicle -6.36111e-015 -7.55382e-015
rhumerus -13.2634 1.52132 -97.1086
rradius 58.5672
rwrist -68.0105
rhand -43.7111 -2.42285
rfingers 7.12502
rthumb -16.5431 -31.7377
lclavicle -6.36111e-015 -7.55382e-015
lhumerus 44.8169 -73.5951 58.878
lradius 23.3863
lwrist 12.2176
lhand 179.626 229.904
lfingers 7.12502
lthumb -154.768 258.256
rfemur -32.5728 3.30179 17.3588
rtibia 31.4918
rfoot -10.2753 0.312417
rtoes 0.84887
lfemur -22.9244 11.2257 -2.47109
ltibia 26.1501
lfoot -9.33257 5.97043
ltoes -26.3862
132
root -8.07754 17.7588 1.02003 -17.6032 77.4304 -32.4983
lowerback 3.74342 -0.0714686 -6.15742
upperback 5.952 -0.0882278 2.70282
thorax 4.1254 -0.314786 6.29641
lowerneck -13.5986 4.84204 1.395
upperneck 33.5622 10.8549 -8.12522
head 14.3949 4.11713 -1.68239
rclavicle -8.34896e-015 9.54166e-015
rhumerus -13.3549 1.20195 -96.6654
rradius 59.744
rwrist -68.0487
rhand -44.7212 -1.70818
rfingers 7.12502
rthumb -17.5153 -30.9391
lclavicle -8.34896e-015 9.54166e-015
lhumerus 48.633 -73.8204 55.4398
lradius 23.6477
lwrist 11.746
lhand 179.17 228.276
lfingers 7.12502
lthumb -155.205 256.689
rfemur -32.5355 3.49493 17.7566
rtibia 31.4905
rfoot -10.3494 0.514437
rtoes 0.212141
lfemur -22.5116 11.1375 -2.0203
ltibia 25.9688
lfoot -9.2756 6.45605
ltoes -26.3427
133
root -8.07539 17.757 1.06228 -17.4026 76.983 -32.3081
lowerback 3.7579 -0.338031 -6.38315
upperback 5.97433 -0.445688 2.6381
thorax 4.202 -0.505969 6.35736
lowerneck -13.4768 5.26936 1.48249
upperneck 33.2503 11.466 -8.32236
head 14.2926 4.36888 -1.67477
rclavicle 3.29983e-014 -3.65764e-014
rhumerus -13.4215 1.37348 -96.4097
rradius 60.8433
rwrist -68.2608
rhand -45.3861 -1.00304
rfingers 7.12502
rthumb -18.1551 -30.1758
lclavicle 3.29983e-014 -3.65764e-014
lhumerus 50.3341 -73.437 54.0383
lradius 23.7455
lwrist 10.416
lhand 179.363 226.557
lfingers 7.12502
lthumb -155.02 254.944
rfemur -32.577 3.51791 18.1528
rtibia 31.5114
rfoot -10.4231 0.994535
rtoes 0.415395
lfemur -22.1358 11.0469 -1.6102
ltibia 25.7596
lfoot -9.18841 6.9444
ltoes -26.2548
134
root -8.07328 17.7538 1.10432 -16.9396 76.5278 -31.8509
lowerback 3.7293 -0.667027 -6.73111
upperback 6.03707 -0.881452 2.50707
thorax 4.36354 -0.744375 6.41599
lowerneck -13.4091 5.79863 1.81079
upperneck 32.9269 12.1631 -8.5536
head 14.2256 4.67841 -1.70559
rclavicle -2.82274e-014 4.77083e-015
rhumerus -13.3553 1.41946 -96.4118
rradius 61.8972
rwrist -68.1959
rhand -46.102 -0.232792
rfingers 7.12502
rthumb -18.8438 -29.34
lclavicle -2.82274e-014 4.77083e-015
lhumerus 51.9701 -72.9104 52.5604
lradius 23.706
lwrist 9.32266
lhand 178.921 224.916
lfingers 7.12502
lthumb -155.443 253.361
rfemur -32.63 3.58078 18.4674
rtibia 31.5376
rfoot -10.4733 1.45397
rtoes 1.29419
lfemur -21.7475 11.0479 -1.27867
ltibia 25.5372
lfoot -9.07588 7.34088
ltoes -25.9463
